<?xml version="1.0" encoding="utf-8"?>
<!-- Generator: Adobe Illustrator 24.3.0, SVG Export Plug-In . SVG Version: 6.00 Build 0)  -->
<svg version="1.1" id="Layer_1" xmlns="http://www.w3.org/2000/svg" xmlns:xlink="http://www.w3.org/1999/xlink" x="0px" y="0px"
	 viewBox="0 0 1000 1000" style="enable-background:new 0 0 1000 1000;" xml:space="preserve">
<style type="text/css">
	.st0{fill:#72B579;}
	.st1{fill:none;stroke:#464950;stroke-width:10;stroke-linecap:round;stroke-linejoin:round;stroke-miterlimit:10;}
	.st2{fill:#AECC75;}
	.st3{opacity:0.51;fill:#464950;enable-background:new    ;}
	.st4{fill:#F03A47;}
	.st5{fill:none;stroke:#DD2A40;stroke-width:6;stroke-miterlimit:10;}
	
		.st6{opacity:0.85;fill:none;stroke:#464950;stroke-width:6;stroke-linejoin:round;stroke-miterlimit:10;enable-background:new    ;}
	.st7{fill:#DD2A40;}
	.st8{fill:#50B893;}
	.st9{opacity:0.55;fill:#464950;enable-background:new    ;}
	.st10{fill:#429977;}
	.st11{opacity:0.31;fill:#464950;enable-background:new    ;}
	.st12{fill:#5A646D;}
	.st13{fill:#F4FFC5;}
	.st14{fill:#B7C391;}
	.st15{fill:#4C555C;}
	.st16{fill:none;stroke:#464950;stroke-width:8;stroke-linecap:round;stroke-linejoin:round;stroke-miterlimit:10;}
	.st17{opacity:0.92;fill:#DD2A40;enable-background:new    ;}
	.st18{opacity:0.4;}
	.st19{fill:none;stroke:#464950;stroke-width:3;stroke-linecap:round;stroke-linejoin:round;stroke-miterlimit:10;}
	.st20{opacity:0.97;}
	.st21{fill:#A58167;}
	.st22{opacity:0.38;fill:#464950;enable-background:new    ;}
	.st23{fill:none;stroke:#464950;stroke-width:6;stroke-linecap:round;stroke-linejoin:round;stroke-miterlimit:10;}
	.st24{fill:none;stroke:#464950;stroke-width:7;stroke-linecap:round;stroke-linejoin:round;stroke-miterlimit:10;}
	.st25{opacity:0.47;fill:#A58167;enable-background:new    ;}
	.st26{opacity:0.76;fill:#464950;enable-background:new    ;}
	.st27{opacity:0.67;fill:#464950;enable-background:new    ;}
	.st28{fill:#62A366;}
	.st29{opacity:0.3;fill:#464950;enable-background:new    ;}
	.st30{opacity:0.43;fill:#C7CAD1;enable-background:new    ;}
	.st31{opacity:0.35;fill:#C7CAD1;enable-background:new    ;}
	.st32{fill:#464950;}
</style>
<path id="XMLID_40_" class="st0" d="M142.3,726c-8-6.5-13-16.4-13-27.5c0-19.5,15.8-35.4,35.4-35.4S200,679,200,698.6
	c0,11.1-5.1,21-13,27.5L142.3,726z"/>
<path id="XMLID_41_" class="st1" d="M142.3,726c-8-6.5-13-16.4-13-27.5c0-19.5,15.8-35.4,35.4-35.4S200,679,200,698.6
	c0,11.1-5.1,21-13,27.5L142.3,726z"/>
<ellipse id="XMLID_230_" class="st2" cx="627.3" cy="682.3" rx="21.3" ry="43.3"/>
<path id="XMLID_235_" class="st3" d="M614.9,682.3c0-20.8,7.2-38.1,16.8-42.3c-1.5-0.6-3-1-4.5-1c-11.8,0-21.3,19.4-21.3,43.3
	s9.5,43.3,21.3,43.3c1.5,0,3-0.3,4.5-1C622.1,720.4,614.9,703.1,614.9,682.3z"/>
<ellipse id="XMLID_229_" class="st1" cx="627.3" cy="682.3" rx="21.3" ry="43.3"/>
<polygon id="XMLID_124_" class="st4" points="287.3,560 284.7,447 179.7,447 177.1,560 173.3,726 291.1,726 "/>
<line id="XMLID_157_" class="st5" x1="240.5" y1="593.8" x2="287.6" y2="593.8"/>
<line id="XMLID_160_" class="st6" x1="209" y1="609.3" x2="239.2" y2="609.3"/>
<line id="XMLID_161_" class="st6" x1="274.2" y1="622" x2="289.3" y2="622"/>
<line id="XMLID_162_" class="st6" x1="259.1" y1="672" x2="272.7" y2="672"/>
<line id="XMLID_158_" class="st5" x1="272.7" y1="654.2" x2="287.6" y2="654.2"/>
<line id="XMLID_159_" class="st5" x1="269.7" y1="693.5" x2="278.6" y2="693.5"/>
<polygon id="XMLID_125_" class="st7" points="205.7,573 287.6,573 287.3,560 203.9,560 "/>
<polygon id="XMLID_135_" class="st7" points="173.3,726 207,726 211.9,456 284.9,455.8 284.7,447 179.7,447 177.1,560 "/>
<circle id="XMLID_52_" class="st8" cx="393.6" cy="431.1" r="82.6"/>
<path id="XMLID_200_" class="st9" d="M326.2,431.1c0-43.1,33-78.5,75.1-82.3c-2.5-0.2-5-0.4-7.6-0.4c-45.6,0-82.6,37-82.6,82.6
	s37,82.6,82.6,82.6c2.6,0,5.1-0.1,7.6-0.4C359.1,509.6,326.2,474.2,326.2,431.1z"/>
<polyline id="XMLID_138_" class="st1" points="393.6,431.1 393.6,452.7 393.6,494.5 "/>
<line id="XMLID_139_" class="st1" x1="424" y1="444.3" x2="393.6" y2="462.8"/>
<line id="XMLID_140_" class="st1" x1="393.6" y1="477.3" x2="368" y2="457"/>
<circle id="XMLID_38_" class="st1" cx="393.6" cy="431.1" r="82.6"/>
<circle id="XMLID_51_" class="st10" cx="338" cy="510.5" r="35"/>
<path id="XMLID_201_" class="st11" d="M315.9,510.5c0-17.1,12.3-31.4,28.6-34.4c-2.1-0.4-4.2-0.6-6.4-0.6c-19.3,0-35,15.7-35,35
	s15.7,35,35,35c2.2,0,4.3-0.2,6.4-0.6C328.2,541.9,315.9,527.6,315.9,510.5z"/>
<line id="XMLID_142_" class="st1" x1="346" y1="519.1" x2="375" y2="538.3"/>
<circle id="XMLID_44_" class="st1" cx="338" cy="510.5" r="35"/>
<polygon id="XMLID_131_" class="st1" points="287.3,560 284.7,447 179.7,447 177.1,560 173.3,726 291.1,726 "/>
<polygon id="XMLID_130_" class="st12" points="303,561 161.4,561 177.9,536 286.5,536 "/>
<polygon id="XMLID_7_" class="st1" points="303,561 161.4,561 177.9,536 286.5,536 "/>
<path id="XMLID_129_" class="st13" d="M222.7,511h-25v-27.5c0-6.9,5.6-12.5,12.5-12.5l0,0c6.9,0,12.5,5.6,12.5,12.5V511z"/>
<path id="XMLID_127_" class="st13" d="M266.7,511h-26v-27.5c0-6.9,5.6-12.5,12.5-12.5h1c6.9,0,12.5,5.6,12.5,12.5V511z"/>
<path id="XMLID_134_" class="st14" d="M210.2,471L210.2,471c-6.9,0-12.5,5.6-12.5,12.5v11c0-6.9,5.6-12.5,12.5-12.5l0,0
	c6.9,0,12.5,5.6,12.5,12.5v-11C222.7,476.6,217.1,471,210.2,471z"/>
<path id="XMLID_136_" class="st14" d="M254.2,471h-1c-6.9,0-12.5,5.6-12.5,12.5v11c0-6.9,5.6-12.5,12.5-12.5h1
	c6.9,0,12.5,5.6,12.5,12.5v-11C266.7,476.6,261.1,471,254.2,471z"/>
<path id="XMLID_10_" class="st1" d="M222.7,511h-25v-27.5c0-6.9,5.6-12.5,12.5-12.5l0,0c6.9,0,12.5,5.6,12.5,12.5V511z"/>
<path id="XMLID_14_" class="st1" d="M266.7,511h-26v-27.5c0-6.9,5.6-12.5,12.5-12.5h1c6.9,0,12.5,5.6,12.5,12.5V511z"/>
<polygon id="XMLID_126_" class="st12" points="297.2,447 167.2,447 232.2,383.6 "/>
<polygon id="XMLID_128_" class="st15" points="232.2,383.6 213.3,447 167.2,447 "/>
<polygon id="XMLID_8_" class="st1" points="297.2,447 167.2,447 232.2,383.6 "/>
<rect id="XMLID_12_" x="203.9" y="625" class="st13" width="56.7" height="101"/>
<rect id="XMLID_13_" x="203.9" y="625" class="st14" width="56.7" height="12.8"/>
<rect id="XMLID_231_" x="204.9" y="625" class="st14" width="8.1" height="101"/>
<rect id="XMLID_15_" x="203.9" y="625" class="st1" width="56.7" height="101"/>
<line id="XMLID_17_" class="st16" x1="214.1" y1="636" x2="250.3" y2="715"/>
<line id="XMLID_18_" class="st16" x1="250.3" y1="636" x2="214.1" y2="715"/>
<polygon id="XMLID_47_" class="st4" points="563.4,492.4 473.1,447 382.8,492.4 353.4,544 353.4,723.8 592.8,723.8 592.8,544 "/>
<polygon id="XMLID_60_" class="st4" points="563.4,492.4 473.1,447 382.8,492.4 353.4,544 353.4,723.8 592.8,723.8 592.8,544 "/>
<rect id="XMLID_216_" x="353.4" y="587.4" class="st17" width="10.2" height="137.6"/>
<polygon id="XMLID_66_" class="st17" points="476.1,447 385.8,492.4 356.4,544 356.4,596.4 404.5,517.1 476.1,481.1 547.7,517.1 
	595.8,596.4 595.8,544 566.4,492.4 "/>
<g id="XMLID_71_" class="st18">
	<g id="XMLID_97_">
		<line id="XMLID_98_" class="st19" x1="403.8" y1="489" x2="542.4" y2="489"/>
	</g>
	<g id="XMLID_95_">
		<line id="XMLID_96_" class="st19" x1="383.5" y1="507" x2="562.7" y2="507"/>
	</g>
	<g id="XMLID_93_">
		<line id="XMLID_94_" class="st19" x1="372.2" y1="525" x2="574" y2="525"/>
	</g>
	<g id="XMLID_91_">
		<line id="XMLID_92_" class="st19" x1="360.9" y1="543" x2="585.3" y2="543"/>
	</g>
	<g id="XMLID_89_">
		<line id="XMLID_90_" class="st19" x1="353.4" y1="561" x2="592.8" y2="561"/>
	</g>
	<g id="XMLID_87_">
		<line id="XMLID_88_" class="st19" x1="353.4" y1="579" x2="592.8" y2="579"/>
	</g>
	<g id="XMLID_85_">
		<line id="XMLID_86_" class="st19" x1="353.4" y1="597" x2="592.8" y2="597"/>
	</g>
	<g id="XMLID_83_">
		<line id="XMLID_84_" class="st19" x1="353.4" y1="615" x2="592.8" y2="615"/>
	</g>
	<g id="XMLID_81_">
		<line id="XMLID_82_" class="st19" x1="353.4" y1="633" x2="592.8" y2="633"/>
	</g>
	<g id="XMLID_78_">
		<line id="XMLID_79_" class="st19" x1="353.4" y1="651" x2="592.8" y2="651"/>
	</g>
	<g id="XMLID_76_">
		<line id="XMLID_77_" class="st19" x1="353.4" y1="669" x2="592.8" y2="669"/>
	</g>
	<g id="XMLID_74_">
		<line id="XMLID_75_" class="st19" x1="353.4" y1="687" x2="592.8" y2="687"/>
	</g>
	<g id="XMLID_72_">
		<line id="XMLID_73_" class="st19" x1="353.4" y1="705" x2="592.8" y2="705"/>
	</g>
</g>
<rect id="XMLID_16_" x="353.4" y="587.4" class="st7" width="239.4" height="9.8"/>
<g id="XMLID_69_" class="st20">
	<g id="XMLID_122_">
		<line id="XMLID_123_" class="st19" x1="403.8" y1="492" x2="542.4" y2="492"/>
	</g>
	<g id="XMLID_120_">
		<line id="XMLID_121_" class="st19" x1="383.5" y1="510" x2="562.7" y2="510"/>
	</g>
	<g id="XMLID_118_">
		<line id="XMLID_119_" class="st19" x1="372.2" y1="528" x2="574" y2="528"/>
	</g>
	<g id="XMLID_116_">
		<line id="XMLID_117_" class="st19" x1="360.9" y1="546" x2="585.3" y2="546"/>
	</g>
	<g id="XMLID_114_">
		<line id="XMLID_115_" class="st19" x1="353.4" y1="564" x2="592.8" y2="564"/>
	</g>
	<g id="XMLID_112_">
		<line id="XMLID_113_" class="st19" x1="353.4" y1="582" x2="592.8" y2="582"/>
	</g>
	<g id="XMLID_110_">
		<line id="XMLID_111_" class="st19" x1="353.4" y1="600" x2="592.8" y2="600"/>
	</g>
	<g id="XMLID_108_">
		<line id="XMLID_109_" class="st19" x1="353.4" y1="618" x2="592.8" y2="618"/>
	</g>
	<g id="XMLID_106_">
		<line id="XMLID_107_" class="st19" x1="353.4" y1="636" x2="592.8" y2="636"/>
	</g>
	<g id="XMLID_104_">
		<line id="XMLID_105_" class="st19" x1="353.4" y1="654" x2="592.8" y2="654"/>
	</g>
	<g id="XMLID_102_">
		<line id="XMLID_103_" class="st19" x1="353.4" y1="672" x2="592.8" y2="672"/>
	</g>
	<g id="XMLID_100_">
		<line id="XMLID_101_" class="st19" x1="353.4" y1="690" x2="592.8" y2="690"/>
	</g>
	<g id="XMLID_80_">
		<line id="XMLID_99_" class="st19" x1="353.4" y1="708" x2="592.8" y2="708"/>
	</g>
</g>
<polygon id="XMLID_28_" class="st1" points="563.4,492.4 473.1,447 382.8,492.4 353.4,544 353.4,723.8 592.8,723.8 592.8,544 "/>
<rect id="XMLID_55_" x="403.8" y="629.5" class="st13" width="69.3" height="94.3"/>
<rect id="XMLID_62_" x="403.8" y="629.5" class="st13" width="69.3" height="94.3"/>
<rect id="XMLID_64_" x="403.8" y="629.5" class="st14" width="69.3" height="13.5"/>
<rect id="XMLID_215_" x="403.8" y="629.5" class="st14" width="9.2" height="93.2"/>
<rect id="XMLID_53_" x="473.1" y="629.5" class="st13" width="69.3" height="94.3"/>
<rect id="XMLID_67_" x="473.1" y="629.5" class="st14" width="69.3" height="13.5"/>
<rect id="XMLID_217_" x="473.1" y="629.5" class="st14" width="9.2" height="93.2"/>
<rect id="XMLID_19_" x="403.8" y="629.5" class="st1" width="69.3" height="94.3"/>
<rect id="XMLID_21_" x="473.1" y="629.5" class="st1" width="69.3" height="94.3"/>
<rect id="XMLID_56_" x="443.1" y="507" class="st13" width="60" height="60"/>
<rect id="XMLID_65_" x="443.1" y="507" class="st13" width="60" height="60"/>
<rect id="XMLID_68_" x="443.1" y="507" class="st14" width="60" height="10.5"/>
<rect id="XMLID_70_" x="443.1" y="537.5" class="st14" width="60" height="8"/>
<rect id="XMLID_20_" x="443.1" y="507" class="st1" width="60" height="60"/>
<polygon id="XMLID_50_" class="st21" points="611.4,576.5 597.5,584.4 551.9,504.5 473.1,464.9 394.3,504.5 348.7,584.4 
	334.8,576.5 382.8,492.4 473.1,447 563.4,492.4 "/>
<polygon id="XMLID_33_" class="st1" points="611.4,576.5 597.5,584.4 551.9,504.5 473.1,464.9 394.3,504.5 348.7,584.4 334.8,576.5 
	382.8,492.4 473.1,447 563.4,492.4 "/>
<ellipse id="XMLID_171_" class="st2" cx="741.6" cy="565.5" rx="46.4" ry="83.9"/>
<path id="XMLID_202_" class="st3" d="M707.6,566.5c0-43.8,18.6-79.7,42.2-83.5c-2.7-0.9-5.4-1.4-8.3-1.4
	c-25.6,0-46.4,37.6-46.4,83.9s20.8,83.9,46.4,83.9c1.4,0,2.8-0.1,4.2-0.4C724.1,642,707.6,607.7,707.6,566.5z"/>
<ellipse id="XMLID_11_" class="st1" cx="741.6" cy="565.5" rx="46.4" ry="83.9"/>
<polyline id="XMLID_22_" class="st1" points="741.6,548.7 741.6,624 741.6,723.8 "/>
<path id="XMLID_163_" class="st0" d="M899.2,489.5c9.3,32.5,9.4,62.9-1.5,86.7c-10.5,23.6-31.9,40.7-57.3,40.5
	c-25.5,0.2-46.9-16.9-57.3-40.5c-10.8-23.9-10.8-54.3-1.5-86.7c21.5-64.9,37.2-119.5,58.8-119.5C862,369.9,877.7,424.6,899.2,489.5z
	"/>
<circle id="XMLID_208_" class="st3" cx="818.1" cy="567" r="8.1"/>
<path id="XMLID_206_" class="st22" d="M798.6,576c-11.4-25-11.3-57-1.5-91.1c16.8-51.2,30.1-101.4,44.8-110
	c-0.6-0.1-0.9-5.1-1.5-5.1c-21.6,0-37.3,54.7-58.8,119.5c-9.3,32.5-9.4,62.9,1.5,86.7c10.5,23.6,31.9,40.7,57.3,40.5
	c1.1,0,2.1,0,3.2-0.1C823.7,611.4,807.4,595.9,798.6,576z"/>
<path id="XMLID_29_" class="st1" d="M899.2,489.5c9.3,32.5,9.4,62.9-1.5,86.7c-10.5,23.6-31.9,40.7-57.3,40.5
	c-25.5,0.2-46.9-16.9-57.3-40.5c-10.8-23.9-10.8-54.3-1.5-86.7c21.5-64.9,37.2-119.5,58.8-119.5C862,369.9,877.7,424.6,899.2,489.5z
	"/>
<path id="XMLID_133_" class="st2" d="M284.3,723.8c0-14.7,11.9-26.6,26.6-26.6s26.6,11.9,26.6,26.6H284.3z"/>
<path id="XMLID_39_" class="st1" d="M284.3,723.8c0-14.7,11.9-26.6,26.6-26.6s26.6,11.9,26.6,26.6H284.3z"/>
<path id="XMLID_233_" class="st2" d="M91.8,725.8c0-14.7,11.9-26.6,26.6-26.6s26.6,11.9,26.6,26.6H91.8z"/>
<path id="XMLID_42_" class="st1" d="M91.8,725.8c0-14.7,11.9-26.6,26.6-26.6s26.6,11.9,26.6,26.6H91.8z"/>
<line id="XMLID_63_" class="st1" x1="564.3" y1="584.4" x2="594.8" y2="584.4"/>
<line id="XMLID_61_" class="st1" x1="537" y1="584.4" x2="549" y2="584.4"/>
<line id="XMLID_54_" class="st1" x1="348.7" y1="584.4" x2="523.7" y2="584.4"/>
<line id="XMLID_23_" class="st23" x1="473.1" y1="508" x2="473.1" y2="568.7"/>
<line id="XMLID_24_" class="st23" x1="501.1" y1="537" x2="445.1" y2="537"/>
<line id="XMLID_58_" class="st16" x1="416.1" y1="643" x2="460.8" y2="710.3"/>
<line id="XMLID_59_" class="st16" x1="460.8" y1="643" x2="416.1" y2="710.3"/>
<line id="XMLID_57_" class="st16" x1="485.4" y1="643" x2="530.1" y2="710.3"/>
<line id="XMLID_26_" class="st16" x1="530.1" y1="643" x2="485.4" y2="710.3"/>
<path id="XMLID_137_" class="st1" d="M393.6,477.3"/>
<g>
	<line id="XMLID_247_" class="st1" x1="257.5" y1="815.8" x2="396.6" y2="815.8"/>
	<line id="XMLID_175_" class="st1" x1="221" y1="815.8" x2="235.5" y2="815.8"/>
	<rect id="XMLID_172_" x="276.2" y="788.7" class="st24" width="120.4" height="7"/>
	<rect id="XMLID_174_" x="276.2" y="765.5" class="st24" width="120.4" height="7"/>
	<polygon id="XMLID_147_" class="st21" points="347.3,815.8 328.3,815.8 328.3,742.8 337.8,732.2 347.3,742.8 	"/>
	<polygon id="XMLID_253_" class="st25" points="337.3,747.8 345.6,738.6 340.8,733.2 331.3,743.8 331.3,816.8 337.3,816.8 	"/>
	<polygon id="XMLID_144_" class="st1" points="347.3,815.8 328.3,815.8 328.3,742.8 337.8,732.2 347.3,742.8 	"/>
	<polygon id="XMLID_173_" class="st21" points="385.6,815.8 366.6,815.8 366.6,742.8 376.1,732.2 385.6,742.8 	"/>
	<polygon id="XMLID_238_" class="st25" points="375.6,747.8 383.8,738.6 379.1,733.2 369.6,743.8 369.6,816.8 375.6,816.8 	"/>
	<polygon id="XMLID_185_" class="st1" points="385.6,815.8 366.6,815.8 366.6,742.8 376.1,732.2 385.6,742.8 	"/>
	<polygon id="XMLID_153_" class="st21" points="308.6,815.8 289.6,815.8 289.6,742.8 299.1,732.2 308.6,742.8 	"/>
	<polygon id="XMLID_150_" class="st21" points="308.6,815.8 289.6,815.8 289.6,742.8 299.1,732.2 308.6,742.8 	"/>
	<polygon id="XMLID_261_" class="st25" points="298.6,747.8 306.9,738.6 302.1,733.2 292.6,743.8 292.6,816.8 298.6,816.8 	"/>
	<polygon id="XMLID_151_" class="st1" points="308.6,815.8 289.6,815.8 289.6,742.8 299.1,732.2 308.6,742.8 	"/>
</g>
<circle id="XMLID_156_" class="st26" cx="415.4" cy="391.6" r="6.6"/>
<circle id="XMLID_170_" class="st26" cx="373.1" cy="383.6" r="12.3"/>
<circle id="XMLID_165_" class="st26" cx="368" cy="431.1" r="3.8"/>
<circle id="XMLID_164_" class="st27" cx="342.8" cy="422.8" r="8"/>
<circle id="XMLID_169_" class="st27" cx="386.7" cy="409.5" r="6.9"/>
<circle id="XMLID_167_" class="st27" cx="443.5" cy="426" r="3.2"/>
<circle id="XMLID_177_" class="st28" cx="893.5" cy="477" r="22.8"/>
<path id="XMLID_207_" class="st29" d="M882.9,477c0-11,7.8-20.2,18.2-22.4c-1.5-0.3-3-0.5-4.6-0.5c-12.6,0-22.8,10.2-22.8,22.8
	c0,12.6,10.2,22.8,22.8,22.8c1.6,0,3.1-0.2,4.6-0.5C890.7,497.2,882.9,488,882.9,477z"/>
<circle id="XMLID_43_" class="st1" cx="893.5" cy="477" r="22.8"/>
<polyline id="XMLID_30_" class="st1" points="840.4,498 840.4,582 840.4,723.8 "/>
<path id="XMLID_212_" class="st0" d="M778.6,724.7c0-29.2,23.7-52.9,52.9-52.9s52.9,23.7,52.9,52.9H778.6z"/>
<path id="XMLID_210_" class="st0" d="M778.6,724.7c0-29.2,23.7-52.9,52.9-52.9s52.9,23.7,52.9,52.9H778.6z"/>
<path id="XMLID_226_" class="st22" d="M840.8,672.6c-3-0.5-6.1-0.8-9.3-0.8c-29.2,0-52.9,23.7-52.9,52.9h18.7
	C797.3,698.7,816,677,840.8,672.6z"/>
<path id="XMLID_211_" class="st1" d="M778.6,724.7c0-29.2,23.7-52.9,52.9-52.9s52.9,23.7,52.9,52.9H778.6z"/>
<line id="XMLID_186_" class="st1" x1="870.6" y1="564" x2="840.4" y2="590"/>
<line id="XMLID_187_" class="st1" x1="840.4" y1="546" x2="812" y2="516.6"/>
<line id="XMLID_188_" class="st1" x1="760.5" y1="606.7" x2="741.6" y2="624"/>
<line id="XMLID_189_" class="st1" x1="741.6" y1="593.3" x2="721.8" y2="573.5"/>
<circle id="XMLID_166_" class="st3" cx="762.9" cy="575.4" r="6.9"/>
<circle id="XMLID_194_" class="st3" cx="720.9" cy="542.1" r="3.3"/>
<circle id="XMLID_196_" class="st30" cx="739.1" cy="517.4" r="7.4"/>
<circle id="XMLID_199_" class="st30" cx="843.6" cy="439.6" r="5.4"/>
<circle id="XMLID_203_" class="st3" cx="858" cy="503.5" r="5.5"/>
<circle id="XMLID_205_" class="st30" cx="826.2" cy="468.6" r="8.1"/>
<circle id="XMLID_204_" class="st30" cx="869.3" cy="528.9" r="7.7"/>
<circle id="XMLID_198_" class="st30" cx="757.3" cy="543.4" r="4.6"/>
<circle id="XMLID_197_" class="st31" cx="722.4" cy="595.8" r="3.4"/>
<path id="XMLID_209_" class="st2" d="M853.4,724.7c0-17.6,14.3-31.8,31.8-31.8s31.8,14.3,31.8,31.8H853.4z"/>
<path id="XMLID_227_" class="st3" d="M893.8,694c-2.7-0.8-5.6-1.2-8.6-1.2c-17.6,0-31.8,14.3-31.8,31.8h17.3
	C870.6,710.1,880.4,697.8,893.8,694z"/>
<path id="XMLID_168_" class="st1" d="M853.4,724.7c0-17.6,14.3-31.8,31.8-31.8s31.8,14.3,31.8,31.8H853.4z"/>
<g>
	<line id="XMLID_192_" class="st1" x1="864" y1="815.8" x2="883.8" y2="815.8"/>
	<line id="XMLID_190_" class="st1" x1="898.2" y1="815.8" x2="902.6" y2="815.8"/>
	<line id="XMLID_191_" class="st1" x1="566.5" y1="815.8" x2="848.5" y2="815.8"/>
	<line id="XMLID_46_" class="st1" x1="538" y1="815.8" x2="549" y2="815.8"/>
	<rect id="XMLID_31_" x="554.3" y="763.5" class="st16" width="286.1" height="4"/>
	<rect id="XMLID_37_" x="557.3" y="786.7" class="st16" width="286.1" height="7"/>
	<polygon id="XMLID_141_" class="st21" points="590.9,815.8 571.9,815.8 571.9,742.8 581.4,732.2 590.9,742.8 	"/>
	<polygon id="XMLID_237_" class="st25" points="580.9,747.8 589.2,738.6 584.4,733.2 574.9,743.8 574.9,816.8 580.9,816.8 	"/>
	<polygon id="XMLID_34_" class="st1" points="590.9,815.8 571.9,815.8 571.9,742.8 581.4,732.2 590.9,742.8 	"/>
	<polygon id="XMLID_155_" class="st21" points="686.5,815.8 667.5,815.8 667.5,742.8 677,732.2 686.5,742.8 	"/>
	<polygon id="XMLID_240_" class="st25" points="676.5,747.8 684.8,738.6 680,733.2 670.5,743.8 670.5,816.8 676.5,816.8 	"/>
	<polygon id="XMLID_154_" class="st21" points="734.3,815.8 715.3,815.8 715.3,742.8 724.8,732.2 734.3,742.8 	"/>
	<polygon id="XMLID_243_" class="st25" points="723.3,746.8 731.6,737.6 726.8,732.2 717.3,742.8 717.3,815.8 723.3,815.8 	"/>
	<polygon id="XMLID_146_" class="st21" points="638.7,815.8 619.7,815.8 619.7,742.8 629.2,732.2 638.7,742.8 	"/>
	<polygon id="XMLID_244_" class="st25" points="628.7,747.8 637,738.6 632.2,733.2 622.7,743.8 622.7,816.8 628.7,816.8 	"/>
	<polygon id="XMLID_27_" class="st1" points="686.5,815.8 667.5,815.8 667.5,742.8 677,732.2 686.5,742.8 	"/>
	<polygon id="XMLID_36_" class="st1" points="734.3,815.8 715.3,815.8 715.3,742.8 724.8,732.2 734.3,742.8 	"/>
	<polygon id="XMLID_32_" class="st1" points="638.7,815.8 619.7,815.8 619.7,742.8 629.2,732.2 638.7,742.8 	"/>
	<polygon id="XMLID_149_" class="st21" points="828,815.8 809,815.8 809,742.8 818.5,732.2 828,742.8 	"/>
	<polygon id="XMLID_236_" class="st25" points="818,747.8 826.3,738.6 821.5,733.2 812,743.8 812,816.8 818,816.8 	"/>
	<polygon id="XMLID_49_" class="st1" points="828,815.8 809,815.8 809,742.8 818.5,732.2 828,742.8 	"/>
	<polygon id="XMLID_152_" class="st21" points="781.6,815.8 762.6,815.8 762.6,742.8 772.1,732.2 781.6,742.8 	"/>
	<polygon id="XMLID_242_" class="st25" points="771.6,747.8 779.9,738.6 775.1,733.2 765.6,743.8 765.6,816.8 771.6,816.8 	"/>
	<polygon id="XMLID_48_" class="st1" points="781.6,815.8 762.6,815.8 762.6,742.8 772.1,732.2 781.6,742.8 	"/>
</g>
<circle id="XMLID_219_" class="st27" cx="346" cy="500" r="3.5"/>
<circle id="XMLID_223_" class="st26" cx="326.5" cy="507.5" r="5.8"/>
<circle id="XMLID_228_" class="st30" cx="639.3" cy="678" r="4.3"/>
<circle id="XMLID_232_" class="st3" cx="627.3" cy="665.8" r="3.5"/>
<line id="XMLID_25_" class="st1" x1="65.3" y1="726" x2="945.6" y2="726"/>
<path id="XMLID_132_" class="st2" d="M715.6,725.2c-0.2-1.5-0.2-3,0-4.6c1.3-11.6,11.7-20,23.3-18.8c11.6,1.3,20,11.7,18.8,23.3
	L715.6,725.2z"/>
<path id="XMLID_35_" class="st1" d="M715.6,725.2c-0.2-1.5-0.2-3,0-4.6c1.3-11.6,11.7-20,23.3-18.8c11.6,1.3,20,11.7,18.8,23.3
	L715.6,725.2z"/>
<path id="XMLID_148_" class="st32" d="M688.8,726.5c-0.1-0.5-0.1-0.9-0.1-1.4c0-6.4,5.2-11.6,11.6-11.6c6.4,0,11.6,5.2,11.6,11.6
	c0,0.6,0,1.2-0.1,1.7L688.8,726.5z"/>
<path id="XMLID_221_" class="st32" d="M592.9,725.8c-0.1-0.7-0.1-1.3-0.1-2c0-9.5,7.7-17.2,17.2-17.2s17.2,7.7,17.2,17.2
	c0,0.9-0.1,1.7-0.2,2.6L592.9,725.8z"/>
<path id="XMLID_5_" class="st1" d="M729.9,205.1c-12.2,0-22.4,8.5-25,19.9c-4.6-7.2-12.6-11.9-21.7-11.9c-3.9,0-7.7,0.9-11,2.5"/>
<path id="XMLID_225_" class="st1" d="M772.8,236.9c-9.2,0-16.9,6.4-18.9,15c-3.4-5.4-9.5-9-16.3-9c-3,0-5.8,0.7-8.3,1.9"/>
<path id="XMLID_1_" class="st1" d="M177.8,264.2c-13.3,1.6-23.5,12.9-23.5,26.6c0,0.7,0,1.3,0.1,2H131"/>
<path id="XMLID_3_" class="st1" d="M177.8,264.2c0.8-19.8,17.2-35.6,37.2-35.6c18.3,0,33.5,13.2,36.6,30.6"/>
<path id="XMLID_4_" class="st1" d="M236.5,268.8c6-6.8,14.9-11.1,24.7-11.1c18.2,0,33,14.8,33,33c0,0.7,0,1.3-0.1,2h33.2"/>
<path id="XMLID_234_" class="st1" d="M888.4,170.3c9.3,1.1,16.4,9,16.4,18.6c0,0.5,0,0.9-0.1,1.4H921"/>
<path id="XMLID_9_" class="st1" d="M888.4,170.3c-0.6-13.9-12-24.9-26-24.9c-12.8,0-23.4,9.2-25.6,21.4"/>
<path id="XMLID_6_" class="st1" d="M847.3,173.5c-4.2-4.7-10.4-7.7-17.2-7.7c-12.7,0-23.1,10.3-23.1,23.1c0,0.5,0,0.9,0,1.4h-23.2"
	/>
<line id="XMLID_259_" class="st1" x1="737.5" y1="396" x2="774.7" y2="396"/>
<line id="XMLID_254_" class="st1" x1="709.3" y1="396" x2="717.7" y2="396"/>
<line id="XMLID_256_" class="st1" x1="772.8" y1="422.8" x2="837.2" y2="422.8"/>
<line id="XMLID_255_" class="st1" x1="742.7" y1="422.8" x2="756.1" y2="422.8"/>
<line id="XMLID_263_" class="st1" x1="627.3" y1="444.3" x2="683.4" y2="444.3"/>
<line id="XMLID_264_" class="st1" x1="660.6" y1="422.8" x2="705.3" y2="422.8"/>
<line id="XMLID_266_" class="st1" x1="450.7" y1="391.6" x2="495.5" y2="391.6"/>
<line id="XMLID_267_" class="st1" x1="495.5" y1="422.8" x2="517.9" y2="422.8"/>
<line id="XMLID_257_" class="st1" x1="62.1" y1="374.2" x2="114.6" y2="374.2"/>
<path id="XMLID_252_" class="st1" d="M759.9,381.5c0-8,6.5-14.5,14.5-14.5s14.5,6.5,14.5,14.5s-6.5,14.5-14.5,14.5"/>
<path id="XMLID_265_" class="st1" d="M671.2,456.5c0,6.7,5.4,12.1,12.1,12.1c6.7,0,12.1-5.4,12.1-12.1s-5.4-12.1-12.1-12.1"/>
<line id="XMLID_260_" class="st1" x1="133.8" y1="396" x2="158.8" y2="396"/>
<line id="XMLID_262_" class="st1" x1="92.5" y1="396" x2="114.6" y2="396"/>
<path id="XMLID_258_" class="st1" d="M144,381.5c0-8,6.5-14.5,14.5-14.5s14.5,6.5,14.5,14.5s-6.5,14.5-14.5,14.5"/>
</svg>
